{"asset":{"version":"2.0","generator":"DEAD SHIFT original infected asset generator"},"scenes":[{"nodes":[0]}],"scene":0,"nodes":[{"name":"INFECTED_ROOT","children":[1,2,3,4,5,10,18,22,30]},{"name":"torso","mesh":0,"translation":[0,1.61,0],"scale":[0.47,0.7,0.29]},{"name":"torn_rib_wound","mesh":1,"translation":[0.23,1.7,0.25],"scale":[0.16,0.29,0.085]},{"name":"spine","mesh":2,"translation":[0,1.85,-0.27],"scale":[0.16,0.43,0.12]},{"name":"neck","mesh":3,"translation":[0,2.28,0],"scale":[0.14,0.24,0.15]},{"name":"skull","mesh":4,"translation":[0,2.61,0.06],"scale":[0.3,0.37,0.27],"children":[6,7,8,9]},{"name":"open_mouth","mesh":5,"translation":[0,-0.19,0.23],"scale":[0.2,0.13,0.06]},{"name":"left_eye","mesh":6,"translation":[-0.12,0.07,0.252],"scale":[0.07,0.06,0.036]},{"name":"right_eye","mesh":7,"translation":[0.12,0.07,0.252],"scale":[0.07,0.06,0.036]},{"name":"jaw_tear","mesh":8,"translation":[-0.21,-0.12,0.14],"scale":[0.065,0.16,0.06]},{"name":"left_shoulder","translation":[-0.49,2.1,0],"children":[11,12,13,14,15,16,17]},{"name":"upper_arm","mesh":9,"translation":[-0.07,-0.32,0.02],"scale":[0.16,0.38,0.17]},{"name":"exposed_forearm","mesh":10,"translation":[-0.09,-0.75,0.06],"scale":[0.13,0.33,0.12]},{"name":"hand","mesh":11,"translation":[-0.1,-1.06,0.09],"scale":[0.15,0.19,0.1]},{"name":"claw","mesh":12,"translation":[0.015,-1.23,0.13],"scale":[0.025,0.13,0.029]},{"name":"claw","mesh":13,"translation":[-0.05,-1.23,0.13],"scale":[0.025,0.13,0.029]},{"name":"claw","mesh":14,"translation":[-0.115,-1.23,0.13],"scale":[0.025,0.13,0.029]},{"name":"claw","mesh":15,"translation":[-0.18,-1.23,0.13],"scale":[0.025,0.13,0.029]},{"name":"left_leg","translation":[-0.25,1.12,0],"children":[19,20,21]},{"name":"thigh","mesh":16,"translation":[0,-0.29,0.01],"scale":[0.21,0.43,0.21]},{"name":"shin","mesh":17,"translation":[0,-0.76,0.03],"scale":[0.16,0.4,0.16]},{"name":"boot","mesh":18,"translation":[0,-1.07,0.13],"scale":[0.21,0.15,0.36]},{"name":"right_shoulder","translation":[0.49,2.1,0],"children":[23,24,25,26,27,28,29]},{"name":"upper_arm","mesh":19,"translation":[0.07,-0.32,0.02],"scale":[0.16,0.38,0.17]},{"name":"exposed_forearm","mesh":20,"translation":[0.09,-0.75,0.06],"scale":[0.13,0.33,0.12]},{"name":"hand","mesh":21,"translation":[0.1,-1.06,0.09],"scale":[0.15,0.19,0.1]},{"name":"claw","mesh":22,"translation":[-0.015,-1.23,0.13],"scale":[0.025,0.13,0.029]},{"name":"claw","mesh":23,"translation":[0.05,-1.23,0.13],"scale":[0.025,0.13,0.029]},{"name":"claw","mesh":24,"translation":[0.115,-1.23,0.13],"scale":[0.025,0.13,0.029]},{"name":"claw","mesh":25,"translation":[0.18,-1.23,0.13],"scale":[0.025,0.13,0.029]},{"name":"right_leg","translation":[0.25,1.12,0],"children":[31,32,33]},{"name":"thigh","mesh":26,"translation":[0,-0.29,0.01],"scale":[0.21,0.43,0.21]},{"name":"shin","mesh":27,"translation":[0,-0.76,0.03],"scale":[0.16,0.4,0.16]},{"name":"boot","mesh":28,"translation":[0,-1.07,0.13],"scale":[0.21,0.15,0.36]}],"meshes":[{"name":"torso","primitives":[{"attributes":{"POSITION":0,"NORMAL":1},"indices":2,"material":1}]},{"name":"torn_rib_wound","primitives":[{"attributes":{"POSITION":3,"NORMAL":4},"indices":5,"material":2}]},{"name":"spine","primitives":[{"attributes":{"POSITION":6,"NORMAL":7},"indices":8,"material":0}]},{"name":"neck","primitives":[{"attributes":{"POSITION":9,"NORMAL":10},"indices":11,"material":0}]},{"name":"skull","primitives":[{"attributes":{"POSITION":12,"NORMAL":13},"indices":14,"material":0}]},{"name":"open_mouth","primitives":[{"attributes":{"POSITION":15,"NORMAL":16},"indices":17,"material":3}]},{"name":"left_eye","primitives":[{"attributes":{"POSITION":18,"NORMAL":19},"indices":20,"material":4}]},{"name":"right_eye","primitives":[{"attributes":{"POSITION":21,"NORMAL":22},"indices":23,"material":4}]},{"name":"jaw_tear","primitives":[{"attributes":{"POSITION":24,"NORMAL":25},"indices":26,"material":2}]},{"name":"upper_arm","primitives":[{"attributes":{"POSITION":27,"NORMAL":28},"indices":29,"material":1}]},{"name":"exposed_forearm","primitives":[{"attributes":{"POSITION":30,"NORMAL":31},"indices":32,"material":0}]},{"name":"hand","primitives":[{"attributes":{"POSITION":33,"NORMAL":34},"indices":35,"material":0}]},{"name":"claw","primitives":[{"attributes":{"POSITION":36,"NORMAL":37},"indices":38,"material":4}]},{"name":"claw","primitives":[{"attributes":{"POSITION":39,"NORMAL":40},"indices":41,"material":4}]},{"name":"claw","primitives":[{"attributes":{"POSITION":42,"NORMAL":43},"indices":44,"material":4}]},{"name":"claw","primitives":[{"attributes":{"POSITION":45,"NORMAL":46},"indices":47,"material":4}]},{"name":"thigh","primitives":[{"attributes":{"POSITION":48,"NORMAL":49},"indices":50,"material":1}]},{"name":"shin","primitives":[{"attributes":{"POSITION":51,"NORMAL":52},"indices":53,"material":0}]},{"name":"boot","primitives":[{"attributes":{"POSITION":54,"NORMAL":55},"indices":56,"material":3}]},{"name":"upper_arm","primitives":[{"attributes":{"POSITION":57,"NORMAL":58},"indices":59,"material":1}]},{"name":"exposed_forearm","primitives":[{"attributes":{"POSITION":60,"NORMAL":61},"indices":62,"material":0}]},{"name":"hand","primitives":[{"attributes":{"POSITION":63,"NORMAL":64},"indices":65,"material":0}]},{"name":"claw","primitives":[{"attributes":{"POSITION":66,"NORMAL":67},"indices":68,"material":4}]},{"name":"claw","primitives":[{"attributes":{"POSITION":69,"NORMAL":70},"indices":71,"material":4}]},{"name":"claw","primitives":[{"attributes":{"POSITION":72,"NORMAL":73},"indices":74,"material":4}]},{"name":"claw","primitives":[{"attributes":{"POSITION":75,"NORMAL":76},"indices":77,"material":4}]},{"name":"thigh","primitives":[{"attributes":{"POSITION":78,"NORMAL":79},"indices":80,"material":1}]},{"name":"shin","primitives":[{"attributes":{"POSITION":81,"NORMAL":82},"indices":83,"material":0}]},{"name":"boot","primitives":[{"attributes":{"POSITION":84,"NORMAL":85},"indices":86,"material":3}]}],"materials":[{"name":"necrotic_flesh","pbrMetallicRoughness":{"baseColorFactor":[0.34,0.4,0.31,1],"metallicFactor":0,"roughnessFactor":0.93}},{"name":"torn_scrubs","pbrMetallicRoughness":{"baseColorFactor":[0.18,0.27,0.28,1],"metallicFactor":0,"roughnessFactor":0.95}},{"name":"exposed_tissue","pbrMetallicRoughness":{"baseColorFactor":[0.45,0.09,0.1,1],"metallicFactor":0,"roughnessFactor":0.84}},{"name":"dark_cavity","pbrMetallicRoughness":{"baseColorFactor":[0.04,0.035,0.04,1],"metallicFactor":0,"roughnessFactor":1}},{"name":"milky_eye","pbrMetallicRoughness":{"baseColorFactor":[0.78,0.8,0.58,1],"metallicFactor":0,"roughnessFactor":0.6}}],"buffers":[{"byteLength":163900,"uri":"data:application/octet-stream;base64,"}],"bufferViews":[{"buffer":0,"byteOffset":0,"byteLength":1980,"target":34962},{"buffer":0,"byteOffset":1980,"byteLength":1980,"target":34962},{"buffer":0,"byteOffset":3960,"byteLength":1680,"target":34963},{"buffer":0,"byteOffset":5640,"byteLength":1980,"target":34962},{"buffer":0,"byteOffset":7620,"byteLength":1980,"target":34962},{"buffer":0,"byteOffset":9600,"byteLength":1680,"target":34963},{"buffer":0,"byteOffset":11280,"byteLength":1980,"target":34962},{"buffer":0,"byteOffset":13260,"byteLength":1980,"target":34962},{"buffer":0,"byteOffset":15240,"byteLength":1680,"target":34963},{"buffer":0,"byteOffset":16920,"byteLength":1980,"target":34962},{"buffer":0,"byteOffset":18900,"byteLength":1980,"target":34962},{"buffer":0,"byteOffset":20880,"byteLength":1680,"target":34963},{"buffer":0,"byteOffset":22560,"byteLength":1980,"target":34962},{"buffer":0,"byteOffset":24540,"byteLength":1980,"target":34962},{"buffer":0,"byteOffset":26520,"byteLength":1680,"target":34963},{"buffer":0,"byteOffset":28200,"byteLength":1980,"target":34962},{"buffer":0,"byteOffset":30180,"byteLength":1980,"target":34962},{"buffer":0,"byteOffset":32160,"byteLength":1680,"target":34963},{"buffer":0,"byteOffset":33840,"byteLength":1980,"target":34962},{"buffer":0,"byteOffset":35820,"byteLength":1980,"target":34962},{"buffer":0,"byteOffset":37800,"byteLength":1680,"target":34963},{"buffer":0,"byteOffset":39480,"byteLength":1980,"target":34962},{"buffer":0,"byteOffset":41460,"byteLength":1980,"target":34962},{"buffer":0,"byteOffset":43440,"byteLength":1680,"target":34963},{"buffer":0,"byteOffset":45120,"byteLength":1980,"target":34962},{"buffer":0,"byteOffset":47100,"byteLength":1980,"target":34962},{"buffer":0,"byteOffset":49080,"byteLength":1680,"target":34963},{"buffer":0,"byteOffset":50760,"byteLength":1980,"target":34962},{"buffer":0,"byteOffset":52740,"byteLength":1980,"target":34962},{"buffer":0,"byteOffset":54720,"byteLength":1680,"target":34963},{"buffer":0,"byteOffset":56400,"byteLength":1980,"target":34962},{"buffer":0,"byteOffset":58380,"byteLength":1980,"target":34962},{"buffer":0,"byteOffset":60360,"byteLength":1680,"target":34963},{"buffer":0,"byteOffset":62040,"byteLength":1980,"target":34962},{"buffer":0,"byteOffset":64020,"byteLength":1980,"target":34962},{"buffer":0,"byteOffset":66000,"byteLength":1680,"target":34963},{"buffer":0,"byteOffset":67680,"byteLength":1980,"target":34962},{"buffer":0,"byteOffset":69660,"byteLength":1980,"target":34962},{"buffer":0,"byteOffset":71640,"byteLength":1680,"target":34963},{"buffer":0,"byteOffset":73320,"byteLength":1980,"target":34962},{"buffer":0,"byteOffset":75300,"byteLength":1980,"target":34962},{"buffer":0,"byteOffset":77280,"byteLength":1680,"target":34963},{"buffer":0,"byteOffset":78960,"byteLength":1980,"target":34962},{"buffer":0,"byteOffset":80940,"byteLength":1980,"target":34962},{"buffer":0,"byteOffset":82920,"byteLength":1680,"target":34963},{"buffer":0,"byteOffset":84600,"byteLength":1980,"target":34962},{"buffer":0,"byteOffset":86580,"byteLength":1980,"target":34962},{"buffer":0,"byteOffset":88560,"byteLength":1680,"target":34963},{"buffer":0,"byteOffset":90240,"byteLength":1980,"target":34962},{"buffer":0,"byteOffset":92220,"byteLength":1980,"target":34962},{"buffer":0,"byteOffset":94200,"byteLength":1680,"target":34963},{"buffer":0,"byteOffset":95880,"byteLength":1980,"target":34962},{"buffer":0,"byteOffset":97860,"byteLength":1980,"target":34962},{"buffer":0,"byteOffset":99840,"byteLength":1680,"target":34963},{"buffer":0,"byteOffset":101520,"byteLength":1980,"target":34962},{"buffer":0,"byteOffset":103500,"byteLength":1980,"target":34962},{"buffer":0,"byteOffset":105480,"byteLength":1680,"target":34963},{"buffer":0,"byteOffset":107160,"byteLength":1980,"target":34962},{"buffer":0,"byteOffset":109140,"byteLength":1980,"target":34962},{"buffer":0,"byteOffset":111120,"byteLength":1680,"target":34963},{"buffer":0,"byteOffset":112800,"byteLength":1980,"target":34962},{"buffer":0,"byteOffset":114780,"byteLength":1980,"target":34962},{"buffer":0,"byteOffset":116760,"byteLength":1680,"target":34963},{"buffer":0,"byteOffset":118440,"byteLength":1980,"target":34962},{"buffer":0,"byteOffset":120420,"byteLength":1980,"target":34962},{"buffer":0,"byteOffset":122400,"byteLength":1680,"target":34963},{"buffer":0,"byteOffset":124080,"byteLength":1980,"target":34962},{"buffer":0,"byteOffset":126060,"byteLength":1980,"target":34962},{"buffer":0,"byteOffset":128040,"byteLength":1680,"target":34963},{"buffer":0,"byteOffset":129720,"byteLength":1980,"target":34962},{"buffer":0,"byteOffset":131700,"byteLength":1980,"target":34962},{"buffer":0,"byteOffset":133680,"byteLength":1680,"target":34963},{"buffer":0,"byteOffset":135360,"byteLength":1980,"target":34962},{"buffer":0,"byteOffset":137340,"byteLength":1980,"target":34962},{"buffer":0,"byteOffset":139320,"byteLength":1680,"target":34963},{"buffer":0,"byteOffset":141000,"byteLength":1980,"target":34962},{"buffer":0,"byteOffset":142980,"byteLength":1980,"target":34962},{"buffer":0,"byteOffset":144960,"byteLength":1680,"target":34963},{"buffer":0,"byteOffset":146640,"byteLength":1980,"target":34962},{"buffer":0,"byteOffset":148620,"byteLength":1980,"target":34962},{"buffer":0,"byteOffset":150600,"byteLength":1680,"target":34963},{"buffer":0,"byteOffset":152280,"byteLength":1980,"target":34962},{"buffer":0,"byteOffset":154260,"byteLength":1980,"target":34962},{"buffer":0,"byteOffset":156240,"byteLength":1680,"target":34963},{"buffer":0,"byteOffset":157920,"byteLength":1980,"target":34962},{"buffer":0,"byteOffset":159900,"byteLength":1980,"target":34962},{"buffer":0,"byteOffset":161880,"byteLength":1680,"target":34963},{"buffer":0,"byteOffset":163560,"byteLength":20,"target":34962},{"buffer":0,"byteOffset":163580,"byteLength":80,"target":34962},{"buffer":0,"byteOffset":163660,"byteLength":80,"target":34962},{"buffer":0,"byteOffset":163740,"byteLength":80,"target":34962},{"buffer":0,"byteOffset":163820,"byteLength":80,"target":34962}],"accessors":[{"bufferView":0,"componentType":5126,"count":165,"type":"VEC3","min":[-1,-1,-1],"max":[1,1,1]},{"bufferView":1,"componentType":5126,"count":165,"type":"VEC3"},{"bufferView":2,"componentType":5123,"count":840,"type":"SCALAR"},{"bufferView":3,"componentType":5126,"count":165,"type":"VEC3","min":[-1,-1,-1],"max":[1,1,1]},{"bufferView":4,"componentType":5126,"count":165,"type":"VEC3"},{"bufferView":5,"componentType":5123,"count":840,"type":"SCALAR"},{"bufferView":6,"componentType":5126,"count":165,"type":"VEC3","min":[-1,-1,-1],"max":[1,1,1]},{"bufferView":7,"componentType":5126,"count":165,"type":"VEC3"},{"bufferView":8,"componentType":5123,"count":840,"type":"SCALAR"},{"bufferView":9,"componentType":5126,"count":165,"type":"VEC3","min":[-1,-1,-1],"max":[1,1,1]},{"bufferView":10,"componentType":5126,"count":165,"type":"VEC3"},{"bufferView":11,"componentType":5123,"count":840,"type":"SCALAR"},{"bufferView":12,"componentType":5126,"count":165,"type":"VEC3","min":[-1,-1,-1],"max":[1,1,1]},{"bufferView":13,"componentType":5126,"count":165,"type":"VEC3"},{"bufferView":14,"componentType":5123,"count":840,"type":"SCALAR"},{"bufferView":15,"componentType":5126,"count":165,"type":"VEC3","min":[-1,-1,-1],"max":[1,1,1]},{"bufferView":16,"componentType":5126,"count":165,"type":"VEC3"},{"bufferView":17,"componentType":5123,"count":840,"type":"SCALAR"},{"bufferView":18,"componentType":5126,"count":165,"type":"VEC3","min":[-1,-1,-1],"max":[1,1,1]},{"bufferView":19,"componentType":5126,"count":165,"type":"VEC3"},{"bufferView":20,"componentType":5123,"count":840,"type":"SCALAR"},{"bufferView":21,"componentType":5126,"count":165,"type":"VEC3","min":[-1,-1,-1],"max":[1,1,1]},{"bufferView":22,"componentType":5126,"count":165,"type":"VEC3"},{"bufferView":23,"componentType":5123,"count":840,"type":"SCALAR"},{"bufferView":24,"componentType":5126,"count":165,"type":"VEC3","min":[-1,-1,-1],"max":[1,1,1]},{"bufferView":25,"componentType":5126,"count":165,"type":"VEC3"},{"bufferView":26,"componentType":5123,"count":840,"type":"SCALAR"},{"bufferView":27,"componentType":5126,"count":165,"type":"VEC3","min":[-1,-1,-1],"max":[1,1,1]},{"bufferView":28,"componentType":5126,"count":165,"type":"VEC3"},{"bufferView":29,"componentType":5123,"count":840,"type":"SCALAR"},{"bufferView":30,"componentType":5126,"count":165,"type":"VEC3","min":[-1,-1,-1],"max":[1,1,1]},{"bufferView":31,"componentType":5126,"count":165,"type":"VEC3"},{"bufferView":32,"componentType":5123,"count":840,"type":"SCALAR"},{"bufferView":33,"componentType":5126,"count":165,"type":"VEC3","min":[-1,-1,-1],"max":[1,1,1]},{"bufferView":34,"componentType":5126,"count":165,"type":"VEC3"},{"bufferView":35,"componentType":5123,"count":840,"type":"SCALAR"},{"bufferView":36,"componentType":5126,"count":165,"type":"VEC3","min":[-1,-1,-1],"max":[1,1,1]},{"bufferView":37,"componentType":5126,"count":165,"type":"VEC3"},{"bufferView":38,"componentType":5123,"count":840,"type":"SCALAR"},{"bufferView":39,"componentType":5126,"count":165,"type":"VEC3","min":[-1,-1,-1],"max":[1,1,1]},{"bufferView":40,"componentType":5126,"count":165,"type":"VEC3"},{"bufferView":41,"componentType":5123,"count":840,"type":"SCALAR"},{"bufferView":42,"componentType":5126,"count":165,"type":"VEC3","min":[-1,-1,-1],"max":[1,1,1]},{"bufferView":43,"componentType":5126,"count":165,"type":"VEC3"},{"bufferView":44,"componentType":5123,"count":840,"type":"SCALAR"},{"bufferView":45,"componentType":5126,"count":165,"type":"VEC3","min":[-1,-1,-1],"max":[1,1,1]},{"bufferView":46,"componentType":5126,"count":165,"type":"VEC3"},{"bufferView":47,"componentType":5123,"count":840,"type":"SCALAR"},{"bufferView":48,"componentType":5126,"count":165,"type":"VEC3","min":[-1,-1,-1],"max":[1,1,1]},{"bufferView":49,"componentType":5126,"count":165,"type":"VEC3"},{"bufferView":50,"componentType":5123,"count":840,"type":"SCALAR"},{"bufferView":51,"componentType":5126,"count":165,"type":"VEC3","min":[-1,-1,-1],"max":[1,1,1]},{"bufferView":52,"componentType":5126,"count":165,"type":"VEC3"},{"bufferView":53,"componentType":5123,"count":840,"type":"SCALAR"},{"bufferView":54,"componentType":5126,"count":165,"type":"VEC3","min":[-1,-1,-1],"max":[1,1,1]},{"bufferView":55,"componentType":5126,"count":165,"type":"VEC3"},{"bufferView":56,"componentType":5123,"count":840,"type":"SCALAR"},{"bufferView":57,"componentType":5126,"count":165,"type":"VEC3","min":[-1,-1,-1],"max":[1,1,1]},{"bufferView":58,"componentType":5126,"count":165,"type":"VEC3"},{"bufferView":59,"componentType":5123,"count":840,"type":"SCALAR"},{"bufferView":60,"componentType":5126,"count":165,"type":"VEC3","min":[-1,-1,-1],"max":[1,1,1]},{"bufferView":61,"componentType":5126,"count":165,"type":"VEC3"},{"bufferView":62,"componentType":5123,"count":840,"type":"SCALAR"},{"bufferView":63,"componentType":5126,"count":165,"type":"VEC3","min":[-1,-1,-1],"max":[1,1,1]},{"bufferView":64,"componentType":5126,"count":165,"type":"VEC3"},{"bufferView":65,"componentType":5123,"count":840,"type":"SCALAR"},{"bufferView":66,"componentType":5126,"count":165,"type":"VEC3","min":[-1,-1,-1],"max":[1,1,1]},{"bufferView":67,"componentType":5126,"count":165,"type":"VEC3"},{"bufferView":68,"componentType":5123,"count":840,"type":"SCALAR"},{"bufferView":69,"componentType":5126,"count":165,"type":"VEC3","min":[-1,-1,-1],"max":[1,1,1]},{"bufferView":70,"componentType":5126,"count":165,"type":"VEC3"},{"bufferView":71,"componentType":5123,"count":840,"type":"SCALAR"},{"bufferView":72,"componentType":5126,"count":165,"type":"VEC3","min":[-1,-1,-1],"max":[1,1,1]},{"bufferView":73,"componentType":5126,"count":165,"type":"VEC3"},{"bufferView":74,"componentType":5123,"count":840,"type":"SCALAR"},{"bufferView":75,"componentType":5126,"count":165,"type":"VEC3","min":[-1,-1,-1],"max":[1,1,1]},{"bufferView":76,"componentType":5126,"count":165,"type":"VEC3"},{"bufferView":77,"componentType":5123,"count":840,"type":"SCALAR"},{"bufferView":78,"componentType":5126,"count":165,"type":"VEC3","min":[-1,-1,-1],"max":[1,1,1]},{"bufferView":79,"componentType":5126,"count":165,"type":"VEC3"},{"bufferView":80,"componentType":5123,"count":840,"type":"SCALAR"},{"bufferView":81,"componentType":5126,"count":165,"type":"VEC3","min":[-1,-1,-1],"max":[1,1,1]},{"bufferView":82,"componentType":5126,"count":165,"type":"VEC3"},{"bufferView":83,"componentType":5123,"count":840,"type":"SCALAR"},{"bufferView":84,"componentType":5126,"count":165,"type":"VEC3","min":[-1,-1,-1],"max":[1,1,1]},{"bufferView":85,"componentType":5126,"count":165,"type":"VEC3"},{"bufferView":86,"componentType":5123,"count":840,"type":"SCALAR"},{"bufferView":87,"componentType":5126,"count":5,"type":"SCALAR","min":[0],"max":[1]},{"bufferView":88,"componentType":5126,"count":5,"type":"VEC4"},{"bufferView":89,"componentType":5126,"count":5,"type":"VEC4"},{"bufferView":90,"componentType":5126,"count":5,"type":"VEC4"},{"bufferView":91,"componentType":5126,"count":5,"type":"VEC4"}],"animations":[{"name":"infected_lurch_cycle","samplers":[{"input":87,"output":88,"interpolation":"LINEAR"},{"input":87,"output":89,"interpolation":"LINEAR"},{"input":87,"output":90,"interpolation":"LINEAR"},{"input":87,"output":91,"interpolation":"LINEAR"}],"channels":[{"sampler":0,"target":{"node":10,"path":"rotation"}},{"sampler":1,"target":{"node":22,"path":"rotation"}},{"sampler":2,"target":{"node":18,"path":"rotation"}},{"sampler":3,"target":{"node":30,"path":"rotation"}}]}]}